<svg width="82" height="105" viewBox="0 0 82 105" fill="none" xmlns="http://www.w3.org/2000/svg">
<g id="Group 143">
<path id="Vector" d="M61.5 52.5551V21.0881C61.5 9.46107 52.3519 0 41.1076 0C40.7469 0.00221792 40.3876 0.0462018 40.0365 0.131112C34.7744 0.392185 29.8117 2.71326 26.1753 6.6141C22.5389 10.5149 20.507 15.697 20.5 21.0881V52.5551C20.5 64.1244 29.6942 73.5331 41 73.5331C52.3057 73.5331 61.5 64.1244 61.5 52.5551ZM30.75 52.5551V21.0881C30.75 15.3034 35.3471 10.5991 41 10.5991C41.2802 10.5992 41.5599 10.5729 41.8354 10.5205C47.0885 10.9138 51.25 15.5027 51.25 21.0881V52.5551C51.25 58.3398 46.6529 63.0441 41 63.0441C35.3471 63.0441 30.75 58.3398 30.75 52.5551Z" fill="#FDFDFD"/>
<path id="Vector_2" d="M10.25 52.5552H0C0 73.9108 15.6876 91.5532 35.875 94.1493V105H46.125V94.1493C66.3124 91.5532 82 73.916 82 52.5552H71.75C71.75 69.9092 57.9586 84.0221 41 84.0221C24.0414 84.0221 10.25 69.9092 10.25 52.5552Z" fill="#FDFDFD"/>
</g>
</svg>
